<?xml version="1.0" encoding="UTF-8"?>
<svg id="Ebene_1" xmlns="http://www.w3.org/2000/svg" version="1.1" viewBox="0 0 1000 1000">
  <!-- Generator: Adobe Illustrator 30.1.0, SVG Export Plug-In . SVG Version: 2.1.1 Build 136)  -->
  <defs>
    <style>
      .st0 {
        fill: #953289;
      }

      .st1 {
        fill: #fdfdfc;
      }

      .st2 {
        fill: #004e8f;
      }

      .st3 {
        fill: #62b12f;
      }
    </style>
  </defs>
  <path class="st2" d="M500,34.64C242.99,34.64,34.64,242.99,34.64,500s208.35,465.36,465.36,465.36,465.36-208.35,465.36-465.36S757.01,34.64,500,34.64ZM472.13,944.46c-222.58-13.74-400.9-190.99-416.36-413.09C37.02,261.78,261.78,37.02,531.36,55.77c222.11,15.45,399.35,193.78,413.09,416.36,16.48,266.93-205.39,488.81-472.33,472.33Z"/>
  <path class="st3" d="M449.89,426.03h90.55l.14,113.56,121.2-.27c22.3-.05,43.95-8.58,59.79-23.44,15.57-14.61,21.12-34.58,18.43-56.49-4.67-37.9-44.18-60.98-80.99-61.01l-71.78-.27-57.07-75.74,133.26.04c61.15.02,129.59,29.36,155.95,87.86,25.75,57.14,9.29,122.64-39.14,162.52-31.17,25.66-70.26,42.02-111.66,42.18h-218.65v-188.94Z"/>
  <polygon class="st0" points="421.9 614.97 331.28 614.97 331.28 398.11 224.94 398.11 168.57 322.37 500.25 322.37 557.32 398.11 421.9 398.11 421.9 614.97"/>
  <g>
    <path class="st1" d="M332.06,727.34l16.25-92.47h40.55l-2.38,13.47h-25.23l-4.36,25.36h21.14l-2.38,13.47h-21.14l-4.76,26.68h25.63l-2.38,13.47h-40.95Z"/>
    <path class="st1" d="M439.85,727.34h-16.91l-1.19-92.47h15.19l-1.32,68.56,22.72-68.56h15.19l-33.68,92.47Z"/>
    <path class="st1" d="M492.16,727.34l16.25-92.47h40.55l-2.38,13.47h-25.23l-4.36,25.36h21.13l-2.38,13.47h-21.13l-4.76,26.68h25.63l-2.38,13.47h-40.95Z"/>
    <path class="st1" d="M571.15,727.34l16.25-92.47h15.06l9.64,57.2,10.04-57.2h14l-16.25,92.47h-14.27l-9.91-60.1-10.57,60.1h-14Z"/>
    <path class="st1" d="M715.14,648.34h-15.46l-13.87,78.99h-15.32l13.87-78.99h-15.46l2.38-13.47h46.23l-2.38,13.47Z"/>
    <path class="st1" d="M775.11,667.89l2.38-12.95c.92-5.81-1.98-7.92-6.47-7.92s-8.19,2.11-9.11,7.92l-1.19,6.34c-.79,4.76.13,7.4,4.09,9.91l9.77,6.08c8.19,5.15,12.68,9.12,10.96,18.49l-2.38,13.34c-2.51,14.27-10.83,19.29-26.16,19.29h-.26c-12.68,0-22.06-4.89-19.55-19.29l2.91-16.12h15.06l-2.51,14c-.92,5.68,1.85,8.19,6.47,8.19s8.45-2.51,9.38-8.19l1.32-7.27c.92-5.02-.26-7.66-4.36-10.17l-9.64-6.08c-7.13-4.49-12.29-10.3-10.83-18.49l2.11-12.15c2.51-13.74,12.15-19.02,26.16-19.02h.26c11.36,0,21.8,5.28,19.29,19.02l-2.64,15.06h-15.06Z"/>
  </g>
</svg>